<?xml version="1.0" standalone="no"?>
<!DOCTYPE svg PUBLIC "-//W3C//DTD SVG 20010904//EN"
 "http://www.w3.org/TR/2001/REC-SVG-20010904/DTD/svg10.dtd">
<svg version="1.0" xmlns="http://www.w3.org/2000/svg"
 width="300.000000pt" height="300.000000pt" viewBox="0 0 300.000000 300.000000"
 preserveAspectRatio="xMidYMid meet">
<metadata>
Created by potrace 1.10, written by Peter Selinger 2001-2011
</metadata>
<g transform="translate(0.000000,300.000000) scale(0.100000,-0.100000)"
fill="#000000" stroke="none">
<path d="M1286 2724 c-120 -22 -286 -81 -383 -136 -316 -182 -522 -451 -611
-798 -25 -97 -27 -120 -26 -295 1 -179 2 -197 32 -307 55 -211 157 -391 309
-549 85 -88 219 -191 306 -236 43 -22 48 -22 43 -6 -42 145 -165 658 -159 664
4 4 152 62 329 129 176 67 326 125 334 130 10 6 -12 80 -100 330 -62 176 -111
323 -109 325 2 1 178 38 392 81 213 43 392 81 398 85 9 5 7 65 -5 230 -9 123
-16 231 -16 240 0 16 -70 47 -185 83 -145 45 -390 59 -549 30z"/>
<path d="M2290 2439 c0 -8 7 -123 16 -257 9 -133 15 -244 13 -246 -2 -1 -166
-35 -364 -75 -198 -41 -362 -75 -364 -77 -2 -1 43 -138 99 -304 57 -165 100
-303 97 -306 -3 -3 -158 -64 -344 -135 -186 -72 -341 -133 -345 -137 -3 -4 29
-144 71 -311 71 -278 79 -305 102 -315 14 -6 107 -10 219 -10 179 -1 204 1
300 26 459 116 798 456 917 917 30 119 42 327 24 452 -36 254 -158 507 -333
689 -84 87 -108 107 -108 89z"/>
</g>
</svg>
