<svg id="svg" xmlns="http://www.w3.org/2000/svg" xmlns:xlink="http://www.w3.org/1999/xlink" width="400" height="165.33333333333331" viewBox="0, 0, 400,165.33333333333331"><g id="svgg"><path id="path0" d="M95.183 10.307 L 86.267 19.199 86.267 66.905 C 86.267 104.964,86.250 114.606,86.184 114.583 C 86.138 114.568,67.110 91.828,43.900 64.050 C 20.690 36.272,1.677 13.522,1.650 13.494 C 1.622 13.467,1.600 40.719,1.600 74.056 L 1.600 134.667 9.967 134.667 L 18.333 134.667 18.333 96.694 C 18.333 72.408,18.356 58.730,18.397 58.744 C 18.433 58.757,32.776 75.837,50.271 96.700 L 82.080 134.633 93.090 148.787 L 104.100 162.940 104.117 122.531 C 104.126 100.306,104.126 63.963,104.117 41.769 L 104.100 1.415 95.183 10.307 M364.031 38.749 C 364.013 38.796,364.008 57.134,364.019 79.500 L 364.040 120.167 364.184 121.019 C 365.529 129.007,372.056 134.621,380.000 134.621 C 387.966 134.621,394.503 128.979,395.820 120.967 C 395.984 119.967,396.092 87.739,395.937 85.846 C 395.448 79.856,390.088 73.738,383.367 71.496 C 378.602 69.907,372.741 71.534,368.683 75.572 L 368.000 76.252 367.983 57.476 L 367.967 38.700 366.015 38.682 C 364.488 38.668,364.056 38.683,364.031 38.749 M116.031 50.749 C 116.013 50.795,116.007 53.488,116.016 56.733 L 116.033 62.633 118.000 62.633 L 119.967 62.633 119.967 56.667 L 119.967 50.700 118.015 50.682 C 116.489 50.669,116.056 50.683,116.031 50.749 M116.031 70.749 C 116.014 70.795,116.007 85.188,116.016 102.733 L 116.033 134.633 118.000 134.633 L 119.967 134.633 119.967 102.667 L 119.967 70.700 118.015 70.682 C 116.489 70.669,116.056 70.683,116.031 70.749 M218.800 70.733 C 211.262 71.321,205.290 76.962,204.153 84.567 C 203.965 85.823,203.968 119.441,204.156 120.767 C 205.572 130.747,215.511 136.965,225.030 133.824 C 230.810 131.918,234.925 126.950,235.847 120.767 C 236.006 119.703,236.035 86.012,235.878 84.833 C 234.731 76.209,227.296 70.070,218.800 70.733 M248.030 70.750 C 247.949 70.961,248.040 119.903,248.123 120.433 C 248.716 124.253,250.187 127.255,252.698 129.770 C 259.968 137.055,272.235 135.633,277.590 126.884 C 278.040 126.148,277.965 126.158,278.343 126.786 C 285.118 138.024,301.988 136.583,306.860 124.351 C 308.082 121.283,308.010 123.186,307.986 94.533 L 307.967 70.700 306.000 70.700 L 304.033 70.700 303.996 95.400 C 303.956 122.066,303.982 120.190,303.638 121.516 C 302.753 124.927,300.360 127.820,297.167 129.339 C 290.448 132.535,282.505 128.940,280.435 121.768 C 280.040 120.399,280.041 120.419,280.002 115.367 L 279.967 110.700 278.000 110.700 L 276.033 110.700 275.997 115.367 C 275.958 120.272,275.958 120.281,275.637 121.517 C 274.754 124.925,272.360 127.820,269.167 129.339 C 262.447 132.535,254.505 128.941,252.434 121.767 C 252.005 120.278,252.043 122.598,252.003 95.400 L 251.967 70.700 250.015 70.682 C 248.475 70.668,248.056 70.683,248.030 70.750 M334.800 70.733 C 327.262 71.321,321.290 76.962,320.153 84.567 C 319.965 85.823,319.968 119.441,320.156 120.767 C 321.572 130.747,331.511 136.965,341.030 133.824 C 347.286 131.761,351.751 125.847,351.947 119.367 L 351.967 118.700 350.000 118.700 L 348.033 118.700 347.986 119.464 C 347.501 127.217,339.674 132.514,332.278 130.095 C 328.151 128.744,325.111 125.311,324.188 120.959 L 324.034 120.233 324.015 111.450 L 323.997 102.667 337.982 102.650 L 351.967 102.633 351.967 94.067 C 351.967 84.893,351.971 85.041,351.623 83.367 C 350.004 75.592,342.712 70.116,334.800 70.733 M146.667 70.908 C 142.488 71.419,139.412 72.856,136.683 75.573 L 136.000 76.253 136.000 73.593 L 136.000 70.933 134.000 70.933 L 132.000 70.933 132.017 102.783 L 132.033 134.633 134.000 134.633 L 135.967 134.633 136.001 109.933 L 136.036 85.233 136.216 84.429 C 139.068 71.696,156.932 71.696,159.784 84.429 L 159.964 85.233 159.999 109.933 L 160.033 134.633 162.000 134.633 L 163.967 134.633 164.001 109.933 L 164.036 85.233 164.216 84.429 C 167.068 71.696,184.932 71.696,187.784 84.429 L 187.964 85.233 187.999 109.933 L 188.033 134.633 190.000 134.633 L 191.967 134.633 191.967 110.167 C 191.967 84.167,191.980 85.318,191.658 83.700 C 190.449 77.621,185.720 72.716,179.700 71.299 C 172.975 69.717,165.862 72.680,162.361 78.522 C 161.965 79.183,162.043 79.190,161.590 78.449 C 159.159 74.478,155.047 71.769,150.333 71.034 C 149.662 70.929,147.187 70.844,146.667 70.908 M222.292 74.863 C 227.395 75.886,231.356 80.153,231.932 85.249 C 231.985 85.712,232.000 90.857,231.986 103.067 L 231.967 120.233 231.813 120.959 C 230.161 128.735,221.876 132.892,214.800 129.494 C 211.377 127.850,208.954 124.709,208.186 120.922 L 208.033 120.167 208.033 102.667 L 208.033 85.167 208.186 84.411 C 209.512 77.866,215.856 73.572,222.292 74.863 M338.292 74.863 C 343.374 75.882,347.310 80.102,347.931 85.198 C 347.974 85.551,348.000 88.186,348.000 92.215 L 348.000 98.667 335.998 98.667 L 323.995 98.667 324.015 91.883 C 324.038 84.249,324.012 84.655,324.573 82.941 C 326.446 77.217,332.438 73.689,338.292 74.863 M381.067 74.871 C 386.799 75.396,391.273 79.676,391.932 85.267 C 391.986 85.723,392.001 90.697,391.987 103.067 L 391.967 120.233 391.813 120.959 C 390.161 128.735,381.876 132.892,374.800 129.494 C 371.377 127.850,368.954 124.709,368.186 120.922 L 368.033 120.167 368.033 102.733 L 368.033 85.300 368.214 84.463 C 369.529 78.388,374.987 74.314,381.067 74.871 " stroke="none" fill="#000000" fill-rule="evenodd"></path></g></svg>