<?xml version="1.0" encoding="utf-8"?>
<!-- Generator: Adobe Illustrator 26.2.1, SVG Export Plug-In . SVG Version: 6.00 Build 0)  -->
<svg version="1.1" id="Layer_1" xmlns="http://www.w3.org/2000/svg" xmlns:xlink="http://www.w3.org/1999/xlink" x="0px" y="0px"
	 viewBox="0 0 2000 1112.5" style="enable-background:new 0 0 2000 1112.5;" xml:space="preserve">
<style type="text/css">
	.st0{fill:#00AAFF;}
	.st1{fill:#FFFFFF;}
</style>
<g id="BezierCurve.002_00000034075325370588609300000002183058058410486716_">
	<path class="st0" d="M1166.1,1019.6h27.8V574.9h-27.8V1019.6z M1193.9,519.3v-83.4h-27.8v83.4H1193.9z M1305.1,1019.6h-27.8V576.4
		h27.8v37.3c21.2-24,51.4-37.7,83.4-37.7c40.4,0,77.7,21.9,97.3,57.3c19.6-35.4,56.8-57.3,97.3-57.3c61.4,0,111.2,49.8,111.2,111.2
		c0,110.8,0,271,0,332.3h-27.8c0-46,0-221.6,0-332.3c0-46-37.3-83.4-83.4-83.4c-46,0-83.4,37.3-83.4,83.4v332.3h-27.8V687.2
		c0-46-37.3-83.4-83.4-83.4s-83.4,37.3-83.4,83.4L1305.1,1019.6z M2000,908.4c0,61.4-49.8,111.2-111.2,111.2
		c-61.4,0-111.2-49.8-111.2-111.2V686c0-61.4,49.8-111.2,111.2-111.2c61.4,0,111.2,49.8,111.2,111.2V908.4z M1972.2,686
		c0-46-37.3-83.4-83.4-83.4s-83.4,37.3-83.4,83.4v222.4c0,46,37.3,83.4,83.4,83.4s83.4-37.3,83.4-83.4V686z M148.8,936.4
		c-198.9-213.6-198-548.5,0-759.6V936.4z M736.8,880.5V217.3L861.5,93C635-57.1,333.8-22.8,148.8,176.8L736.8,880.5z M861.5,1020.6
		c332.4-220.8,331.5-708.3,0-927.5V1020.6z M265.4,491.7l-0.2,539.6c147.4,89.9,328.2,106.1,489.6,43.9L265.4,491.7z"/>
</g>
<path class="st1" d="M265.3,1031.4l0.2-539.6l489.4,583.5c52-20,80.9-38,106.6-54.7V93.1L736.8,217.3v663.2l-588-703.7l0.1,759.6
	C183.6,973.8,222.8,1004.9,265.3,1031.4z"/>
</svg>
